HIERARCHY
ROOT Hips
{
	OFFSET 0.00000 0.00000 0.00000
	CHANNELS 6 Xposition Yposition Zposition Zrotation Yrotation Xrotation 
	JOINT LHipJoint
	{
		OFFSET 0 0 0
		CHANNELS 3 Zrotation Yrotation Xrotation
		JOINT LeftUpLeg
		{
			OFFSET 1.58895 -1.83665 0.71753
			CHANNELS 3 Zrotation Yrotation Xrotation
			JOINT LeftLeg
			{
				OFFSET 2.50528 -6.88321 0.00000
				CHANNELS 3 Zrotation Yrotation Xrotation
				JOINT LeftFoot
				{
					OFFSET 2.63244 -7.23257 0.00000
					CHANNELS 3 Zrotation Yrotation Xrotation
					JOINT LeftToeBase
					{
						OFFSET 0.23691 -0.65090 1.72750
						CHANNELS 3 Zrotation Yrotation Xrotation
						End Site
						{
							OFFSET 0.00000 -0.00000 0.92561
						}
					}
				}
			}
		}
	}
	JOINT RHipJoint
	{
		OFFSET 0 0 0
		CHANNELS 3 Zrotation Yrotation Xrotation
		JOINT RightUpLeg
		{
			OFFSET -1.51435 -1.83665 0.71753
			CHANNELS 3 Zrotation Yrotation Xrotation
			JOINT RightLeg
			{
				OFFSET -2.54551 -6.99375 0.00000
				CHANNELS 3 Zrotation Yrotation Xrotation
				JOINT RightFoot
				{
					OFFSET -2.66027 -7.30903 0.00000
					CHANNELS 3 Zrotation Yrotation Xrotation
					JOINT RightToeBase
					{
						OFFSET -0.22981 -0.63138 2.03959
						CHANNELS 3 Zrotation Yrotation Xrotation
						End Site
						{
							OFFSET -0.00000 -0.00000 1.07060
						}
					}
				}
			}
		}
	}
	JOINT LowerBack
	{
		OFFSET 0 0 0
		CHANNELS 3 Zrotation Yrotation Xrotation
		JOINT Spine
		{
			OFFSET -0.02651 1.86275 -0.11152
			CHANNELS 3 Zrotation Yrotation Xrotation
			JOINT Spine1
			{
				OFFSET 0.01019 1.86224 0.04087
				CHANNELS 3 Zrotation Yrotation Xrotation
				JOINT Neck
				{
					OFFSET 0 0 0
					CHANNELS 3 Zrotation Yrotation Xrotation
					JOINT Neck1
					{
						OFFSET -0.01926 1.80512 0.08867
						CHANNELS 3 Zrotation Yrotation Xrotation
						JOINT Head
						{
							OFFSET 0.05516 1.76451 -0.38475
							CHANNELS 3 Zrotation Yrotation Xrotation
							End Site
							{
								OFFSET 0.01592 1.82587 -0.14001
							}
						}
					}
				}
				JOINT LeftShoulder
				{
					OFFSET 0 0 0
					CHANNELS 3 Zrotation Yrotation Xrotation
					JOINT LeftArm
					{
						OFFSET 3.47116 1.51376 0.14491
						CHANNELS 3 Zrotation Yrotation Xrotation
						JOINT LeftForeArm
						{
							OFFSET 4.78095 -0.00000 0.00000
							CHANNELS 3 Zrotation Yrotation Xrotation
							JOINT LeftHand
							{
								OFFSET 3.58615 -0.00000 -0.00000
								CHANNELS 3 Zrotation Yrotation Xrotation
								JOINT LeftFingerBase
								{
									OFFSET 0 0 0
									CHANNELS 3 Zrotation Yrotation Xrotation
									JOINT LeftHandIndex1
									{
										OFFSET 0.65981 -0.00000 0.00000
										CHANNELS 3 Zrotation Yrotation Xrotation
										End Site
										{
											OFFSET 0.53196 -0.00000 0.00000
										}
									}
								}
								JOINT LThumb
								{
									OFFSET 0 0 0
									CHANNELS 3 Zrotation Yrotation Xrotation
									End Site
									{
										OFFSET 0.54008 -0.00000 0.54008
									}
								}
							}
						}
					}
				}
				JOINT RightShoulder
				{
					OFFSET 0 0 0
					CHANNELS 3 Zrotation Yrotation Xrotation
					JOINT RightArm
					{
						OFFSET -3.31725 1.61216 0.35156
						CHANNELS 3 Zrotation Yrotation Xrotation
						JOINT RightForeArm
						{
							OFFSET -4.48913 -0.00000 0.00000
							CHANNELS 3 Zrotation Yrotation Xrotation
							JOINT RightHand
							{
								OFFSET -3.70510 -0.00000 0.00000
								CHANNELS 3 Zrotation Yrotation Xrotation
								JOINT RightFingerBase
								{
									OFFSET 0 0 0
									CHANNELS 3 Zrotation Yrotation Xrotation
									JOINT RightHandIndex1
									{
										OFFSET -0.44914 -0.00000 0.00000
										CHANNELS 3 Zrotation Yrotation Xrotation
										End Site
										{
											OFFSET -0.36211 -0.00000 0.00000
										}
									}
								}
								JOINT RThumb
								{
									OFFSET 0 0 0
									CHANNELS 3 Zrotation Yrotation Xrotation
									End Site
									{
										OFFSET -0.36763 -0.00000 0.36763
									}
								}
							}
						}
					}
				}
			}
		}
	}
}
MOTION
Frames: 8
Frame Time: .0083333
-1.0326 18.1231 5.7786 0 0 0 0 0 0 -21 0 0 0 0 0 0 0 0 0 0 0 0 0 0 21 0 0 0 0 0 0 0 0 0 0 0 0 0 0 0 0 0 0 0 0 0 0 -16 0 0 21 0 0 11 0 0 0 -8 0 0 0 0 0 0 0 0 0 0 0 0 0 0 0 0 0 0 0 0 8 0 0 0 0 0 0 0 0 0 0 0 0 0 0 0 0 0
-1.0326 18.1231 5.7786 -4.9148 -4.5366 -0.6856 0.0000 0.0000 0.0000 -12.2933 -2.4093 21.7032 0.9918 -6.3384 -17.7695 -1.0770 18.8653 -13.2117 0.0521 -1.4729 -4.0509 0.0000 0.0000 0.0000 20.5185 -3.9046 8.9707 0.0000 -0.0000 0.0000 -0.7906 -2.3698 -17.8145 -0.0895 -1.9295 5.3108 2.1932 1.5875 1.4834 1.5202 2.1696 -0.0968 0.2805 1.0772 -0.9079 -0.8019 -1.9366 -12.1372 3.5558 -3.3473 21.4070 0.9647 -1.2720 8.7600 -0.0000 -0.0000 0.0000 -93.2428 10.4498 22.0989 20.5581 -31.3089 -5.8186 -0.0000 -0.0000 11.1213 6.2480 -24.7682 -2.6262 -7.1250 0.0000 -0.0000 -14.1687 5.7069 13.1062 -0.0000 -0.0000 0.0000 88.4333 -17.9256 26.4242 -23.9736 35.1363 -7.6914 0.0000 0.0000 13.4810 -11.3134 -28.0064 5.3668 7.1250 -0.0000 -0.0000 21.0897 -57.1840 -6.4902
-1.0321 18.1233 5.7782 -4.9198 -4.5449 -0.6823 0.0000 0.0000 0.0000 -12.2754 -2.3362 21.6887 0.9960 -6.3512 -17.8069 -1.0765 18.8412 -13.1292 0.0615 -1.5998 -4.4009 0.0000 0.0000 0.0000 20.5259 -3.8938 8.9638 0.0000 -0.0000 0.0000 -0.7897 -2.3782 -17.8091 -0.0910 -1.9457 5.3555 2.1732 1.5766 1.4932 1.5462 2.1552 -0.0944 0.3184 1.0701 -0.9128 -0.8383 -1.9157 -12.1424 3.5723 -3.3136 21.3950 0.9801 -1.2575 8.7568 0.0000 -0.0000 0.0000 -93.2979 10.4594 22.0571 20.5742 -31.3279 -5.8270 -0.0000 -0.0000 11.0680 6.2272 -24.7582 -2.6164 -7.1250 0.0000 -0.0000 -14.1811 5.7185 13.1152 0.0000 -0.0000 0.0000 88.3655 -17.9452 26.5075 -23.9948 35.1588 -7.7036 0.0000 0.0000 13.4664 -11.4170 -28.0543 5.4254 7.1250 -0.0000 -0.0000 21.0172 -57.2502 -6.5005
-1.0309 18.1236 5.7783 -4.9105 -4.5388 -0.6667 0.0000 0.0000 0.0000 -12.2865 -2.3287 21.6496 0.9932 -6.3428 -17.7822 -1.0717 18.8088 -13.1313 0.0643 -1.6364 -4.5018 0.0000 0.0000 0.0000 20.5083 -3.8904 8.9431 0.0000 -0.0000 0.0000 -0.7867 -2.3656 -17.7714 -0.0948 -1.9862 5.4675 2.3840 1.6262 1.9267 1.4106 2.2474 -0.3999 0.0405 1.1080 -1.4546 -0.8833 -1.9730 -11.8977 3.7526 -3.4307 21.5315 1.0380 -1.2986 8.7655 0.0000 0.0000 0.0000 -93.0710 10.9413 22.2799 20.6184 -31.3801 -5.8499 -0.0000 -0.0000 10.9934 6.2606 -24.7398 -2.6287 -7.1250 0.0000 -0.0000 -14.1609 5.7334 13.0911 0.0000 0.0000 0.0000 88.6444 -18.4158 26.2708 -24.0269 35.1927 -7.7221 0.0000 0.0000 13.5862 -10.8007 -27.9952 5.1171 7.1250 -0.0000 -0.0000 21.6004 -57.0666 -6.5953
-1.0302 18.1234 5.7790 -4.8988 -4.5320 -0.6710 0.0000 0.0000 0.0000 -12.3087 -2.3602 21.6624 0.9924 -6.3401 -17.7745 -1.0704 18.8128 -13.1809 0.0579 -1.5532 -4.2723 0.0000 0.0000 0.0000 20.4882 -3.8984 8.9508 0.0000 -0.0000 0.0000 -0.7854 -2.3681 -17.7590 -0.0924 -1.9601 5.3954 2.4661 1.6494 2.0671 1.3475 2.2872 -0.4965 -0.0774 1.1245 -1.6262 -0.9133 -2.0036 -11.8000 3.8670 -3.4953 21.5826 1.0755 -1.3201 8.7694 0.0000 0.0000 0.0000 -92.9391 11.1240 22.4502 20.6505 -31.4182 -5.8667 -0.0000 -0.0000 10.9505 6.2819 -24.7050 -2.6342 -7.1250 0.0000 -0.0000 -14.1479 5.7652 13.0694 0.0000 0.0000 0.0000 88.8078 -18.5334 26.1065 -24.0039 35.1684 -7.7088 0.0000 0.0000 13.6936 -8.4912 -27.8704 3.9923 7.1250 -0.0000 -0.0000 23.8240 -56.4774 -6.9802
-1.0300 18.1243 5.7804 -4.8903 -4.5461 -0.6727 0.0000 0.0000 0.0000 -12.3249 -2.3756 21.6718 0.9907 -6.3350 -17.7596 -1.0719 18.8289 -13.2042 0.0529 -1.4843 -4.0824 0.0000 0.0000 0.0000 20.4799 -3.8858 8.9579 0.0000 0.0000 -0.0000 -0.7862 -2.3891 -17.7781 -0.0855 -1.8864 5.1918 2.4684 1.6702 2.0515 1.3319 2.3140 -0.4927 -0.0949 1.1380 -1.6122 -0.8827 -2.0135 -11.8240 3.8670 -3.5175 21.6268 1.0678 -1.3270 8.7891 -0.0000 -0.0000 0.0000 -92.8787 11.1346 22.5548 20.6511 -31.4188 -5.8670 -0.0000 -0.0000 10.9233 6.2360 -24.6741 -2.6118 -7.1250 0.0000 -0.0000 -14.1754 5.7994 13.0870 -0.0000 -0.0000 0.0000 88.8678 -18.5164 26.0140 -23.9843 35.1476 -7.6975 0.0000 0.0000 13.7386 -9.1937 -28.1786 4.3706 7.1250 -0.0000 -0.0000 23.3402 -56.9018 -7.0712
-1.0304 18.1245 5.7819 -4.8880 -4.5718 -0.6724 0.0000 0.0000 0.0000 -12.3266 -2.3476 21.6718 0.9891 -6.3300 -17.7449 -1.0705 18.8177 -13.2000 0.0556 -1.5220 -4.1863 0.0000 0.0000 0.0000 20.4818 -3.8614 8.9629 0.0000 0.0000 -0.0000 -0.7851 -2.3999 -17.7721 -0.0828 -1.8558 5.1073 2.4636 1.6907 2.0322 1.3268 2.3402 -0.4841 -0.0975 1.1513 -1.5921 -0.8200 -2.0199 -11.8595 3.7932 -3.5247 21.6703 1.0313 -1.3318 8.8083 0.0000 0.0000 0.0000 -92.8537 11.1169 22.5771 20.6320 -31.3963 -5.8570 -0.0000 -0.0000 10.9175 6.1805 -24.6788 -2.5889 -7.1250 0.0000 -0.0000 -14.2089 5.7998 13.1198 0.0000 0.0000 0.0000 88.8942 -18.5163 25.9715 -23.9851 35.1485 -7.6980 0.0000 0.0000 13.7376 -6.4021 -28.8408 3.0981 7.1250 -0.0000 -0.0000 26.5901 -56.9213 -8.1622
-1.0306 18.1231 5.7828 -4.8874 -4.5898 -0.6821 0.0000 0.0000 0.0000 -12.3281 -2.3276 21.6837 0.9880 -6.3264 -17.7345 -1.0669 18.8011 -13.2294 0.0590 -1.5668 -4.3098 0.0000 0.0000 0.0000 20.4815 -3.8501 8.9838 0.0000 0.0000 -0.0000 -0.7838 -2.3791 -17.7475 -0.0856 -1.8868 5.1929 2.4484 1.6843 2.0379 1.3446 2.3315 -0.4722 -0.0704 1.1473 -1.5846 -0.8283 -2.0151 -11.8732 3.7597 -3.5092 21.6827 1.0230 -1.3284 8.8141 -0.0000 -0.0000 0.0000 -92.8974 11.1070 22.5099 20.6335 -31.3981 -5.8578 -0.0000 -0.0000 10.8938 6.1406 -24.7133 -2.5754 -7.1250 0.0000 -0.0000 -14.2331 5.7700 13.1520 -0.0000 -0.0000 0.0000 88.8529 -18.4963 26.0259 -23.9826 35.1459 -7.6966 0.0000 0.0000 13.7115 -4.4826 -29.2098 2.1909 7.1250 -0.0000 -0.0000 28.7522 -56.8496 -8.8509
